<svg id="authorities" data-name="authorities" xmlns="http://www.w3.org/2000/svg" viewBox="0 0 100 100"><title>Authorities</title><g id="Page-1"><g id="Edit-Profil-biete"><g id="noun_officer_1764248_000000" data-name="noun officer 1764248 000000"><path id="Shape" d="M55,68.81c0,5.33-4.26,27.53-4.26,27.53L49.2,75.67h-3L44.62,96.34s-4.12-22-4.12-27.53c-2.4.06-6.61,1.19-8.36,3-4.52,4.67-5.55,17.94-5.72,25.4H69c-.2-7.49-1.24-20.8-5.78-25.45C61.53,70,57.35,68.86,55,68.81Z"/><path id="Shape-2" data-name="Shape" d="M46.85,42c-4.75,0-9.19,3.3-10,7.63-.21,1.1-.57,4.17,1.09,10.46a8.8,8.8,0,0,0,8.88,6.58,8.79,8.79,0,0,0,8.87-6.58c1.66-6.3,1.3-9.35,1.1-10.46C56,45.3,51.59,42,46.85,42"/><polygon id="Shape-3" data-name="Shape" points="44.18 70.58 49.51 70.58 48.31 74.13 45.65 74.13 44.18 70.58"/></g></g></g></svg>