<svg id="finance" data-name="finance" xmlns="http://www.w3.org/2000/svg" viewBox="0 0 100 100"><title>Finance</title><g id="Page-1"><g id="Edit-Profil-biete"><g id="noun_balance_527915_000000" data-name="noun balance 527915 000000"><path id="Shape" d="M32.07,81.92V84h2V81.92A2.35,2.35,0,0,0,36,79.68v-.91a2.22,2.22,0,0,0-1.27-1.87l-.38-.24L32.51,76h-.06l-.19-.06a1.86,1.86,0,0,1-.25-.18v-.91a.42.42,0,0,1,.44-.42h1.14a.37.37,0,0,1,.38.42v.42h2v-.42a2.3,2.3,0,0,0-1.9-2.23V70.5h-2v2.05A2.38,2.38,0,0,0,30,74.85v.91a2.19,2.19,0,0,0,1.27,1.87l.44.18,2,.72a.74.74,0,0,1,.25.24v.91a.41.41,0,0,1-.38.42H32.39a.37.37,0,0,1-.38-.42v-.42H30v.42A2.42,2.42,0,0,0,32.07,81.92Z"/><path id="Shape-2" data-name="Shape" d="M41.42,87A3.56,3.56,0,0,0,45,83.58a.77.77,0,0,0-.07-.38L34.82,59.4a.82.82,0,0,0-.2-.5,1.13,1.13,0,0,0-1.76,0,.82.82,0,0,0-.2.5L22.53,83.21a.77.77,0,0,0-.07.38A3.56,3.56,0,0,0,26.06,87ZM24.56,83.77l.26-.69H30v-2H25.67l8-18.84,8,18.84H37.43v2H42.6l.33.69a1.48,1.48,0,0,1-1.5,1.32H26.06A1.53,1.53,0,0,1,24.56,83.77Z"/><path id="Shape-3" data-name="Shape" d="M66.87,49.86a1.09,1.09,0,0,0-1.69,0c-.13.12-.13.3-.19.48L57.1,68.77a.73.73,0,0,0-.06.36A3,3,0,0,0,60,72h12a3,3,0,0,0,3-2.87.73.73,0,0,0-.06-.36l-8-18.49A.63.63,0,0,0,66.87,49.86ZM60,67l6-14,6,14Z"/><path id="Shape-4" data-name="Shape" d="M69.17,94.56H54.81a5.69,5.69,0,0,0-3.15-2.5V53.18l15.75-4.49v1.25h2V47.38a1,1,0,0,0-.38-.81,1.1,1.1,0,0,0-.88-.19L53.55,50.56A4.31,4.31,0,0,0,53.87,49a4.23,4.23,0,0,0-3.28-4.12V43.44h-2v1.5A4.21,4.21,0,0,0,47,52.43L30.5,57.11a.94.94,0,0,0-.69.94v2.62h2V58.8l15.68-4.43v37.7a5.69,5.69,0,0,0-3.15,2.5H30a3,3,0,0,0-3,3h45.1A2.87,2.87,0,0,0,69.17,94.56ZM48.58,47v1.93h2V47.06a2.22,2.22,0,0,1,1.26,2,2.27,2.27,0,0,1-4.53,0A2.32,2.32,0,0,1,48.58,47Z"/></g></g></g></svg>