<svg id="garden" data-name="garden" xmlns="http://www.w3.org/2000/svg" viewBox="0 0 100 100"><title>Garden</title><g id="Page-1"><g id="Edit-Profil-biete"><g id="noun_Watering-Can_13900_000000" data-name="noun Watering-Can 13900 000000"><path id="Shape" d="M79.62,53.34a17.59,17.59,0,0,0-8.94-7.71,23.15,23.15,0,0,0-12-1.38,21.2,21.2,0,0,0-10.73,4.89,20.15,20.15,0,0,0-5.82,8.92H40.32c-.58,0-1,.27-1,.84v2.18a1.13,1.13,0,0,0,1,1.15H71.18c.58,0,.68-.58.68-1.15V58.91c0-.58-.1-.84-.68-.84H46.67a16.61,16.61,0,0,1,4.09-5.72,17,17,0,0,1,8.6-3.87c7-1,13.64,1.8,16.54,7,1.87,3.31,3.75,10.13-4,21V67.12c0-1.18-.6-2.1-1.78-2.1H41.41a2,2,0,0,0-2.15,2.09H32.74c-4.81-6.26-10-12.72-10-12.72a1.82,1.82,0,0,1-.35-.88,4.31,4.31,0,0,1,0-.66,3.37,3.37,0,0,1,.19-.58l1.89-3.36a2.35,2.35,0,0,0,0-2.21,1.31,1.31,0,0,0-1.8-.35L11.59,53.67a1.28,1.28,0,0,0-.37,1.78,2.39,2.39,0,0,0,2,.9L16.76,56h.07a2.26,2.26,0,0,1,2,.9L39.28,88.19v6.7A2.13,2.13,0,0,0,41.42,97H70.08c1.18,0,1.78-1,1.78-2.14V83.49C84.61,68.09,82.26,58,79.62,53.34ZM35,70.59h4.28v4.63A36.82,36.82,0,0,1,35,70.59Z"/></g></g></g></svg>