<svg id="household" data-name="household" xmlns="http://www.w3.org/2000/svg" viewBox="0 0 100 100"><title>Household</title><g id="Page-1"><g id="Edit-Profil-biete"><g id="noun_cleaning_189678_000000" data-name="noun cleaning 189678 000000"><path id="Shape" d="M19.51,70.11h1.31l.32,2.11a19.59,19.59,0,0,0,32.53,0L54,70.11h1.3a2.25,2.25,0,0,0,0-4.5H19.51a2.25,2.25,0,0,0,0,4.5Z"/><path id="Shape-2" data-name="Shape" d="M38.1,83.29a24.86,24.86,0,0,1-15.28-5.18l2.5,15s-.15,3,6.31,3H44.56c6.46,0,6.31-3,6.31-3l2.5-15A24.82,24.82,0,0,1,38.1,83.29Z"/><path id="Shape-3" data-name="Shape" d="M19.69,62.83a5.49,5.49,0,0,1,2.67-5C25.94,55.54,29,59.15,29,59.15a8.66,8.66,0,0,1,8.69-6.25c7.17,0,7.7,4.81,7.7,4.81s1.81-2.65,6-1.84,3.63,6,3.63,6v1h2.4l0-.65c.36-3.06-.84-7.94-5.6-8.85a9.19,9.19,0,0,0-5.57.58c-1.46-1.88-4.13-3.58-8.6-3.58a11.07,11.07,0,0,0-9.6,5,6.76,6.76,0,0,0-7,.34,8.18,8.18,0,0,0-3.83,7.15Z"/><path id="Shape-4" data-name="Shape" d="M38.79,44.78a3.47,3.47,0,1,1,3.47-3.47A3.47,3.47,0,0,1,38.79,44.78Zm0-5.69A2.22,2.22,0,1,0,41,41.31,2.23,2.23,0,0,0,38.79,39.08Z"/><path id="Shape-5" data-name="Shape" d="M48.51,48.94A3.47,3.47,0,1,1,52,45.47,3.48,3.48,0,0,1,48.51,48.94Zm0-5.7a2.22,2.22,0,1,0,2.22,2.22A2.23,2.23,0,0,0,48.51,43.25Z"/><path id="Shape-6" data-name="Shape" d="M70,67.28a17.13,17.13,0,0,0-2.41-5c-1.58-2.06-2.15-10.64-2.15-10.64s-.26-1.35-1.22-1.35-1.17,1.3-1.17,1.3L65.23,63a9.4,9.4,0,0,0-.44,5.38S68.68,67.17,70,67.28Z"/><path id="Shape-7" data-name="Shape" d="M71.91,68.39a20.32,20.32,0,0,0,13.94,9.33c1.42.25.92,1.46-.34,1.7s-4.23.52-6.32-1a18.71,18.71,0,0,0,5.25,5.31c3.71,2.61.53,3.26-.9,1.89a58.41,58.41,0,0,0-5-3.88s2.23,5.64,2.93,6.71c1.42,2.18.28,4.32-.95,3s-3.91-8.14-3.91-8.14,3.14,9.34,2.3,9.82-1.34.49-2.09-.89-2.45-8-2.45-8,.17,6.64-.11,7.54c-.46,1.5-1.76.57-1.59-.08.41-1.59-.38-7-.38-7s-.46,7.08-1.88,8.77c-2.47,2.95-2.87.23-2.05-1,1.79-2.72,2.32-8,2.32-8s-2.4,6.58-5,8c-1.09.59-2.16-.5-1.25-1.21,1.84-1.46,4.06-7,4.06-7s-3.86,4.4-5.74,5.46c-1,.58-2.21-.74-1.26-1.21,1.72-.85,5.42-5.84,5.42-5.84a60.08,60.08,0,0,1-6.56,5c-1.25.64-2.56-.26-1.29-1.18a66.24,66.24,0,0,0,6.07-5.3s-4.52,3.3-6.3,3.85c-2.15.67-3.08-.29,1.28-2.72a9,9,0,0,0,3.62-3.53,20.25,20.25,0,0,1-6.42,3.32c-1.13.28-2.72-.28-2.47-1S57.44,80.21,58,80c4.56-2.06,5.17-4.32,6.24-6.43.49-1,1.53-4.1,1.53-4.1Z"/></g></g></g></svg>