<svg id="multimedia" data-name="multimedia" xmlns="http://www.w3.org/2000/svg" viewBox="0 0 100 100"><title>Multimedia</title><g id="Page-1"><g id="Edit-Profil-biete"><g id="noun_Computer_585650_000000" data-name="noun Computer 585650 000000"><path id="Shape" d="M73.1,44.1H24.34c-3.29,0-4.66,1.34-4.66,4.54q0,16.86,0,33.71c0,3.17,1.32,4.49,4.53,4.49H42.55c0,.34,0,.67-.07,1-.07,1-.11,2-.25,3a3.7,3.7,0,0,1-.21.82,3.92,3.92,0,0,1-1.73,2.11l-.94.57c-.55.33-1.11.64-1.65,1a1.55,1.55,0,0,0-.6.61c-.19.39,0,.68.44.76a3.37,3.37,0,0,0,.44,0H59.36c.38,0,.88.13,1-.4s-.25-.75-.64-1l-1.74-1-.65-.38a4.15,4.15,0,0,1-1.85-2.06,4.36,4.36,0,0,1-.31-1.37c-.08-1.18-.19-2.37-.28-3.61H73.1c3,0,4.4-1.37,4.4-4.37V48.37Q77.48,44.1,73.1,44.1ZM50.74,83.62a2.47,2.47,0,0,1-4.32,0,2.56,2.56,0,0,1-.32-1.26,2.48,2.48,0,1,1,4.64,1.26Zm22-5.83q-24.1,0-48.2,0c-1.67,0-1.72-.06-1.72-1.71V49.17c0-1.91,0-1.92,2-1.92H72.55c1.7,0,1.78.07,1.78,1.67,0,9.1,0,18.18,0,27.27C74.36,77.35,74,77.79,72.75,77.79Z"/></g></g></g></svg>