<svg id="shopping" data-name="shopping" xmlns="http://www.w3.org/2000/svg" viewBox="0 0 100 100"><title>Shopping</title><g id="Page-1"><g id="Edit-Profil-biete"><g id="noun_grocery-bag_275627_000000" data-name="noun grocery-bag 275627 000000"><path id="Shape" d="M56,65.4a1.49,1.49,0,0,0,.35,0,1.12,1.12,0,0,0,1-.52,2.17,2.17,0,0,1,2.42-.84c2.12.51,4.44-.3,5.16-1.8.19-.4-.11-.84-.68-1a1.23,1.23,0,0,0-1.37.48,2.16,2.16,0,0,1-2.42.84c-2.12-.51-4.44.3-5.16,1.8-.19.4.11.84.68,1"/><path id="Shape-2" data-name="Shape" d="M58.75,58.44a1.49,1.49,0,0,0,.35,0,1.12,1.12,0,0,0,1-.52,1.62,1.62,0,0,1,1-.78,2.62,2.62,0,0,1,1.46-.07c2.12.51,4.44-.3,5.16-1.8.19-.4-.11-.84-.68-1a1.23,1.23,0,0,0-1.37.48,2.17,2.17,0,0,1-2.42.84,5.58,5.58,0,0,0-3.11.14,3.46,3.46,0,0,0-2.05,1.66c-.19.4.11.84.68,1"/><path id="Shape-3" data-name="Shape" d="M58.74,52.87a1.32,1.32,0,0,0,.34,0,1.08,1.08,0,0,0,1-.58,1.49,1.49,0,0,1,1.76-.7,4.3,4.3,0,0,0,2.69-.14,3.1,3.1,0,0,0,1.77-1.63.83.83,0,0,0-.67-1.09,1.14,1.14,0,0,0-1.35.54,1.23,1.23,0,0,1-.7.64,1.69,1.69,0,0,1-1.06.05,3.79,3.79,0,0,0-4.46,1.77.83.83,0,0,0,.67,1.09"/><path id="Shape-4" data-name="Shape" d="M66,65.68a67.08,67.08,0,0,0,3.1-18A6.83,6.83,0,0,0,67.36,43a4,4,0,0,0-4.93-.72c-2.86,1.47-4.91,5.8-6.56,9.29l-.28.59a5.54,5.54,0,0,0-3-3.83A4.57,4.57,0,0,0,49,44.83c0-.1,0-.2-.07-.3a3.31,3.31,0,0,0-2.74-2.33,3.24,3.24,0,0,0-2,.42A3.52,3.52,0,0,0,39,44.89,4.31,4.31,0,0,0,35.84,49a4.78,4.78,0,0,0-3.27,6.36A3.75,3.75,0,0,0,32,59.21a5.1,5.1,0,0,0-3.82-1.84,1,1,0,0,0,0,1.91h.09a3.34,3.34,0,0,1,2.34,1.28c-1.52.44-3.35,1.15-4.21,2.76a4.84,4.84,0,0,0-.23,3.51,1.65,1.65,0,0,0-.24,1L27.64,90.9a5.45,5.45,0,0,0,5.46,5.17H60a5.45,5.45,0,0,0,5.46-5.15L67.14,67a1.23,1.23,0,0,0-1.1-1.3ZM56.37,54.92c.38-.71.79-1.58,1.23-2.51C59,49.36,61,45.18,63.3,44a2.08,2.08,0,0,1,2.68.36,5,5,0,0,1,1.25,3.29,65.24,65.24,0,0,1-3.08,17.67c-.06.2-.2.6-.4,1.16l-1.63.72-.1.05a3,3,0,0,1-3.06,0l-.68-.41a5,5,0,0,0-2.55-.7,5,5,0,0,0-.72.06,4.92,4.92,0,0,0-1.89.65l-.68.41a3,3,0,0,1-1.22.38l.07-.21c.27-.9.55-1.79.85-2.67.11-.32.22-.64.34-1q.38-1.05.78-2.08c.12-.29.23-.59.35-.88A63.17,63.17,0,0,1,56.37,54.92ZM45.29,66.23l-.31.06a4.94,4.94,0,0,0-.93.3l-.18-.84c.28,0,.55,0,.81,0a7.43,7.43,0,0,0,4.57-1.59,11.84,11.84,0,0,1,1.33-.82l-.26.75-.19.54q-.42,1.28-.8,2.57l-.64-.38a5,5,0,0,0-2.55-.7,5,5,0,0,0-.69.05ZM43.77,53.31a.4.4,0,1,1-.17-.77L49,51.38a.4.4,0,0,1,.39.31.4.4,0,0,1-.3.47Zm.38,3.88.33-.42a2.26,2.26,0,0,0,.2-.31A2,2,0,0,0,44.85,55l4-.87a2.18,2.18,0,0,0,.1.36,2.14,2.14,0,0,0,.95,1.06l.45.24.39.21.19.1.33.2.28.18.31.24.26.23c.09.09.18.18.26.28a3.34,3.34,0,0,1,.41.58c-.41.9-.79,1.81-1.16,2.73l-.18.42a9.8,9.8,0,0,0-3.32,1.65,5.66,5.66,0,0,1-4.7,1.14l-.58-2.65C42.46,59.33,43.32,58.24,44.14,57.19ZM38.47,80.95a1,1,0,1,1,0,1.91H31.75a1,1,0,1,1,0-1.91Zm-6.71,3.82h8.63a1,1,0,1,1,0,1.91H31.75a1,1,0,1,1,0-1.91Zm2.58-28.49.63-.52-.41-.7a2.87,2.87,0,0,1,2.38-4.31l1.17,0-.27-1.13a2.35,2.35,0,0,1-.07-.55A2.38,2.38,0,0,1,40,46.66l.89-.07v-1a1.61,1.61,0,0,1,1.61-1.55,1.59,1.59,0,0,1,1.07.42l.67.6.65-.63A1.33,1.33,0,0,1,46,44.1a1.39,1.39,0,0,1,1.13,1,1.24,1.24,0,0,1,0,.51L47,46.65h1.08a2.64,2.64,0,0,1,2.62,2.44l0,.63.6.21a3.64,3.64,0,0,1,2.45,3.52,3.44,3.44,0,0,1-.63,1.9,10.09,10.09,0,0,0-1.92-1.21l-.44-.24a.21.21,0,0,1-.11-.16.54.54,0,0,1,.13-.42,2,2,0,0,0,.45-1.77L51.18,51a2.08,2.08,0,0,0-2.43-1.55l-.26.06h0l-2.81.61-2.75.6a2,2,0,0,0-1.56,2.43l.06.26h0l.06.26a2,2,0,0,0,1.19,1.43.57.57,0,0,1,.32.31c0,.07,0,.11,0,.2l-.3.39-.33.42-.1.14-.25.34-.12.18-.22.35-.12.2c-.07.13-.14.28-.2.42l-.08.18a5.45,5.45,0,0,0-.22.66S41,59,41,59a5.1,5.1,0,0,0-.11.61c0,.08,0,.17,0,.26s0,.22,0,.34l-.08-.1-.19-.24c-.14-.17-.28-.34-.43-.5l-.21-.22c-.15-.15-.3-.29-.45-.42l-.17-.15a6,6,0,0,0-.61-.44l-.19-.1a4.67,4.67,0,0,0-.45-.22l-.25-.09-.41-.12-.25-.06a4.05,4.05,0,0,0-.53,0h-.12a5,5,0,0,0-2.71.91,1.81,1.81,0,0,1-.13-.69A1.85,1.85,0,0,1,34.33,56.28Zm-6.16,7.93c.41-.76,1.39-1.34,3.1-1.83a5.16,5.16,0,0,0,2.14-1.23c.27-.26.52-.48.77-.67a7.54,7.54,0,0,1,.63-.46h0A3.83,3.83,0,0,1,36,59.49h0a2.18,2.18,0,0,1,.5-.06c1.21,0,2.5,1.2,3.85,3.56A7.23,7.23,0,0,1,41,67.64l-.21,0a3,3,0,0,1-1-.35l-.68-.41a5,5,0,0,0-2.55-.7,5,5,0,0,0-.72.06,4.92,4.92,0,0,0-1.89.65l-.33.2a3.69,3.69,0,0,1-3.76,0l-1.29-.77a1.68,1.68,0,0,0-.54-.2A2.74,2.74,0,0,1,28.17,64.22ZM42.3,90.5H31.75a1,1,0,1,1,0-1.91H42.3a1,1,0,1,1,0,1.91Zm5.75,0H46.14a1,1,0,1,1,0-1.91h1.92a1,1,0,1,1,0,1.91Z"/></g></g></g></svg>