<svg id="transportation" data-name="transportation" xmlns="http://www.w3.org/2000/svg" viewBox="0 0 100 100"><title>Transportation</title><g id="Page-1"><g id="Edit-Profil-biete"><g id="noun_Car_1946395_000000" data-name="noun Car 1946395 000000"><path id="Shape" d="M87.54,67.24a31.68,31.68,0,0,0-7.61-9.13,25.73,25.73,0,0,0-10.31-4.71c-11.91-2.68-26.94-1.1-33.53,1.13-2.8.95-15,12.73-15,12.73-9.86,1.52-15.8,3.8-15.8,9.26v9.24a4.37,4.37,0,0,0,4.46,4.29h1.58c0-.39-.06-.79-.06-1.19A12.84,12.84,0,0,1,24.34,76.3,12.84,12.84,0,0,1,37.43,88.88c0,.4,0,.8-.06,1.19h24.1c0-.39-.06-.79-.06-1.19a13.1,13.1,0,0,1,26.17,0c0,.4,0,.8-.06,1.19h2.05a5.05,5.05,0,0,0,5.15-5V73.8C94.72,71.06,91.72,68.27,87.54,67.24ZM28,67.88l9.65-8.68c1.61-1.34,7.4-2.58,16.59-2.58V67.88Zm31.33,0V56.72c7.7,0,18.77,3.2,22.09,11.16Z"/><path id="Shape-2" data-name="Shape" d="M73.79,78.65a9.52,9.52,0,1,0,9.52,9.51A9.51,9.51,0,0,0,73.79,78.65Zm0,14.75A5.23,5.23,0,1,1,79,88.16,5.23,5.23,0,0,1,73.79,93.39Z"/><path id="Shape-3" data-name="Shape" d="M24.31,78.65a9.52,9.52,0,1,0,9.51,9.51A9.52,9.52,0,0,0,24.31,78.65Zm0,14.75a5.23,5.23,0,1,1,5.23-5.23A5.23,5.23,0,0,1,24.31,93.39Z"/></g></g></g></svg>